<?xml version="1.0" encoding="UTF-8" standalone="no"?>
<svg width="165px" height="27px" viewBox="0 0 165 27" version="1.1" xmlns="http://www.w3.org/2000/svg" xmlns:xlink="http://www.w3.org/1999/xlink" xmlns:sketch="http://www.bohemiancoding.com/sketch/ns">
    <!-- Generator: Sketch 3.3 (11970) - http://www.bohemiancoding.com/sketch -->
    <title>Logo+Key_Visual Copy 2</title>
    <desc>Created with Sketch.</desc>
    <defs></defs>
    <g id="Page-1" stroke="none" stroke-width="1" fill="none" fill-rule="evenodd" sketch:type="MSPage">
        <g id="Startseite" sketch:type="MSArtboardGroup" transform="translate(-22.000000, -60.000000)" fill="#FFFFFF">
            <g id="Logo+Key_Visual-Copy-2" sketch:type="MSLayerGroup" transform="translate(22.000000, 60.000000)">
                <g id="Logo+Key_Visual_NEU" sketch:type="MSShapeGroup">
                    <g id="Group" transform="translate(36.597744, 5.522727)">
                        <path d="M0.0192293233,1.81513636 C2.28270677,1.62061364 4.19509398,1.52304545 5.75577068,1.52304545 C7.31644737,1.52304545 8.51114662,1.95811364 9.34110902,2.82702273 C10.1704511,3.69654545 10.5854323,4.97965909 10.5854323,6.67636364 C10.5854323,8.7345 10.0296429,10.1747045 8.91930451,10.9951364 C7.96280075,11.691 6.7612782,12.0383182 5.31287594,12.0383182 L3.33039474,11.9757273 L3.33039474,16.4614091 L0.0192293233,16.4614091 L0.103590226,9.61813636 L0.0192293233,1.81513636 L0.0192293233,1.81513636 Z M6.70545113,4.46543182 C6.50819549,4.27090909 6.04421053,4.17334091 5.31349624,4.17334091 C4.58216165,4.17334091 3.92154135,4.20831818 3.33101504,4.27765909 L3.33101504,9.13888636 C3.92154135,9.23645455 4.57533835,9.28493182 5.29240602,9.28493182 C6.00947368,9.28493182 6.50137218,9.16343182 6.7687218,8.91981818 C7.03545113,8.67681818 7.16943609,7.94290909 7.16943609,6.71870455 C7.16943609,5.49511364 7.0143609,4.74340909 6.70545113,4.46543182 L6.70545113,4.46543182 Z" id="Shape"></path>
                        <path d="M12.6293233,16.4620227 L12.6293233,0.584795455 L15.8983083,0.584795455 L15.8983083,4.96615909 C17.3603571,4.24329545 18.6611278,3.88125 19.8,3.88125 C20.9388722,3.88125 21.7403008,4.28134091 22.2042857,5.08090909 C22.6682707,5.88109091 22.9002632,6.99729545 22.9002632,8.42952273 L22.9002632,16.4620227 L19.6312782,16.4620227 L19.6312782,8.99284091 C19.6312782,7.96377273 19.5326504,7.32375 19.336015,7.07338636 C19.1387594,6.82302273 18.8856767,6.69784091 18.5767669,6.69784091 C18.0284211,6.69784091 17.135188,6.94820455 15.8983083,7.44893182 L15.8983083,16.4620227 L12.6293233,16.4620227 L12.6293233,16.4620227 Z" id="Shape"></path>
                        <path d="M26.4049624,5.56077273 C27.2417481,4.46911364 28.6436278,3.92297727 30.6124624,3.92297727 C32.5806767,3.92297727 33.9763534,4.46543182 34.7988722,5.55034091 C35.621391,6.63525 36.0326504,8.22825 36.0326504,10.3281136 C36.0326504,12.4285909 35.621391,14.0209773 34.7988722,15.1058864 C33.9763534,16.1907955 32.5806767,16.73325 30.6124624,16.73325 C28.6436278,16.73325 27.2411278,16.1877273 26.4049624,15.0954545 C25.5681767,14.0037955 25.150094,12.4144773 25.150094,10.3281136 C25.150094,8.24175 25.568797,6.65243182 26.4049624,5.56077273 L26.4049624,5.56077273 Z M32.701015,10.3281136 C32.701015,8.74247727 32.556485,7.68886364 32.2686654,7.16727273 C31.9802256,6.64568182 31.4250564,6.38488636 30.6025376,6.38488636 C29.7800188,6.38488636 29.2211278,6.64936364 28.9258647,7.17770455 C28.6306015,7.70604545 28.4829699,8.75659091 28.4829699,10.3281136 C28.4829699,11.90025 28.6306015,12.9501818 28.9258647,13.4785227 C29.2211278,14.0068636 29.7800188,14.2713409 30.6025376,14.2713409 C31.4250564,14.2713409 31.9802256,14.0105455 32.2686654,13.4889545 C32.556485,12.9673636 32.701015,11.91375 32.701015,10.3281136 L32.701015,10.3281136 Z" id="Shape"></path>
                        <path d="M42.2251128,4.79925 L44.7559398,4.79925 L44.7559398,7.28202273 L42.1829323,7.28202273 L42.1829323,12.4353409 C42.1829323,13.1029773 42.246203,13.5276136 42.3727444,13.7080227 C42.4992857,13.8884318 42.7381015,13.97925 43.089812,13.97925 L44.7137594,13.8749318 L44.7137594,16.50375 C44.0246053,16.6571591 43.2659774,16.73325 42.436015,16.73325 C41.212782,16.73325 40.3195489,16.4307273 39.7575564,15.8256818 C39.1949436,15.2206364 38.9139474,14.0627045 38.9139474,12.3518864 L38.9139474,7.21943182 L37.479812,7.21943182 L37.479812,5.19565909 L39.0615789,4.90356818 L39.5466541,2.00352273 L42.2251128,2.00352273 L42.2251128,4.79925 L42.2251128,4.79925 Z" id="Shape"></path>
                        <path d="M47.5584586,5.56077273 C48.3952444,4.46911364 49.7971241,3.92297727 51.7659586,3.92297727 C53.7341729,3.92297727 55.1298496,4.46543182 55.9523684,5.55034091 C56.7748872,6.63525 57.1861466,8.22825 57.1861466,10.3281136 C57.1861466,12.4285909 56.7748872,14.0209773 55.9523684,15.1058864 C55.1298496,16.1907955 53.7341729,16.73325 51.7659586,16.73325 C49.7971241,16.73325 48.3946241,16.1877273 47.5584586,15.0954545 C46.7216729,14.0037955 46.3035902,12.4144773 46.3035902,10.3281136 C46.3035902,8.24175 46.7216729,6.65243182 47.5584586,5.56077273 L47.5584586,5.56077273 Z M53.853891,10.3281136 C53.853891,8.74247727 53.7093609,7.68886364 53.4215414,7.16727273 C53.1331015,6.64568182 52.5779323,6.38488636 51.7554135,6.38488636 C50.9328947,6.38488636 50.3740038,6.64936364 50.0787406,7.17770455 C49.7834774,7.70604545 49.6358459,8.75659091 49.6358459,10.3281136 C49.6358459,11.90025 49.7834774,12.9501818 50.0787406,13.4785227 C50.3740038,14.0068636 50.9328947,14.2713409 51.7554135,14.2713409 C52.5779323,14.2713409 53.1331015,14.0105455 53.4215414,13.4889545 C53.7093609,12.9673636 53.853891,11.91375 53.853891,10.3281136 L53.853891,10.3281136 Z" id="Shape"></path>
                        <path d="M65.0062782,1.52304545 C68.3528008,1.52304545 70.0257519,2.90740909 70.0257519,5.67490909 C70.0257519,6.44011364 69.8570301,7.07277273 69.5195865,7.5735 C69.1821429,8.07422727 68.773985,8.44302273 68.2963534,8.67927273 L68.2963534,8.80445455 C69.7019549,9.38863636 70.4053759,10.4391818 70.4053759,11.9548636 C70.4053759,13.7773636 69.8495865,15.0567955 68.7392481,15.7937727 C67.7690977,16.4196818 66.5737782,16.7326364 65.1539098,16.7326364 C63.7340414,16.7326364 61.8985714,16.6000909 59.6493609,16.3362273 L59.754812,9.59727273 L59.6493609,1.81513636 C61.8005639,1.62122727 63.5864098,1.52304545 65.0062782,1.52304545 L65.0062782,1.52304545 Z M62.9605263,7.57411364 L65.0906391,7.57411364 C65.6811654,7.57411364 66.088703,7.44218182 66.3138722,7.17770455 C66.5384211,6.91322727 66.6513158,6.46159091 66.6513158,5.82156818 C66.6513158,5.18154545 66.5216729,4.73359091 66.2611466,4.47586364 C66.0012406,4.21875 65.5614474,4.08988636 64.9430075,4.08988636 L62.9605263,4.17334091 L62.9605263,7.57411364 L62.9605263,7.57411364 Z M63.0027068,13.97925 C63.8463158,14.0627045 64.5981203,14.1044318 65.2593609,14.1044318 C65.9199812,14.1044318 66.3696992,13.9442727 66.6091353,13.6245682 C66.8479511,13.3048636 66.9676692,12.7795909 66.9676692,12.0493636 C66.9676692,11.3191364 66.7952256,10.8153409 66.4509586,10.53675 C66.1060714,10.2581591 65.5968045,10.1194773 64.9219173,10.1194773 L62.9816165,10.1194773 L63.0027068,13.97925 L63.0027068,13.97925 Z" id="Shape"></path>
                        <path d="M73.4913722,15.6692045 C72.8090414,14.9598409 72.4684962,13.9307727 72.4684962,12.5813864 C72.4684962,11.2326136 72.9498496,10.2520227 73.9131767,9.63961364 C74.8758835,9.02781818 76.2783835,8.72161364 78.1206767,8.72161364 L79.7024436,8.72161364 C79.7024436,7.7895 79.6112594,7.18813636 79.4282707,6.91690909 C79.245282,6.64568182 78.8340226,6.51006818 78.1944925,6.51006818 C77.5543421,6.51006818 76.844718,6.57940909 76.0643797,6.71870455 C75.2840414,6.858 74.4156203,7.06663636 73.4597368,7.34461364 L72.7848496,5.00788636 C73.361109,4.74402273 74.1873496,4.49672727 75.2629511,4.26722727 C76.3385526,4.03772727 77.2981579,3.92297727 78.1417669,3.92297727 C79.8711654,3.92297727 81.1080451,4.31631818 81.8536466,5.10177273 C82.5986278,5.88784091 82.9714286,7.03165909 82.9714286,8.53384091 L82.9714286,16.4620227 L80.9045865,16.4620227 L80.482782,15.1058864 L80.3562406,15.1058864 C80.1875188,15.2310682 79.9660714,15.3844773 79.6918985,15.5648864 C79.4177256,15.7459091 78.901015,15.9858409 78.1417669,16.2846818 C77.3825188,16.5835227 76.6933647,16.73325 76.0749248,16.73325 C75.0340602,16.73325 74.1730827,16.3779545 73.4913722,15.6692045 L73.4913722,15.6692045 Z M79.7024436,11.1209318 C79.2105451,11.0515909 78.5530263,11.0166136 77.7305075,11.0166136 C76.9079887,11.0166136 76.3807331,11.1209318 76.1487406,11.3295682 C75.9167481,11.5382045 75.8007519,11.9346136 75.8007519,12.5187955 C75.8007519,13.1029773 75.8956579,13.5098182 76.0854699,13.7393182 C76.275282,13.9688182 76.5668233,14.0835682 76.9607143,14.0835682 C77.6914286,14.0835682 78.4649436,13.8890455 79.2806391,13.4993864 L79.7024436,13.29075 L79.7024436,11.1209318 L79.7024436,11.1209318 Z" id="Shape"></path>
                        <path d="M89.6886654,6.51006818 C89.1539662,6.51006818 88.8059774,6.57572727 88.6446992,6.70827273 C88.4828008,6.84081818 88.4021617,7.03902273 88.4021617,7.30288636 C88.4021617,7.56675 88.5212594,7.80054545 88.7606955,8.00181818 C88.9995113,8.20370455 89.2383271,8.34975 89.4777632,8.43995455 C89.7165789,8.53077273 89.9944737,8.62097727 90.3108271,8.71118182 C90.6271805,8.80138636 91.0979887,8.93761364 91.7238722,9.11802273 C92.3491353,9.29843182 92.8453759,9.48681818 93.2107331,9.68134091 C94.2931579,10.2796364 94.8346805,11.2356818 94.8346805,12.5500909 C94.8346805,13.8645 94.4265226,14.8905 93.6114474,15.6274773 C92.7957519,16.3650682 91.6500564,16.73325 90.1737406,16.73325 C89.4002256,16.73325 88.5919737,16.632 87.7483647,16.4307273 C86.9047556,16.2288409 86.2509586,16.03125 85.7869737,15.8361136 L85.1120865,15.5231591 L85.913515,12.9777955 C87.6987406,13.7288864 89.1614098,14.1044318 90.300282,14.1044318 C90.7357331,14.1044318 91.0595301,14.0277273 91.2704323,13.8749318 C91.4813346,13.7221364 91.5867857,13.4435455 91.5867857,13.0403864 C91.5867857,12.7900227 91.5446053,12.6096136 91.4602444,12.4979318 C91.3758835,12.3868636 91.3051692,12.2997273 91.2493421,12.2371364 C91.1928947,12.1745455 91.1085338,12.1119545 90.9962594,12.0493636 C90.8833647,11.9867727 90.7884586,11.9382955 90.7115414,11.9033182 C90.6340038,11.8689545 90.5180075,11.8235455 90.3635526,11.7677045 C90.2084774,11.7124773 90.0893797,11.67075 90.0050188,11.6425227 C89.9206579,11.6149091 89.7798496,11.5731818 89.5832143,11.5173409 C89.3859586,11.4621136 89.1645113,11.3958409 88.9188722,11.3191364 C88.6726128,11.2424318 88.4865226,11.1835227 88.3599812,11.1417955 C88.2334398,11.1000682 87.9834586,11.0098636 87.6112782,10.8705682 C87.2384774,10.7312727 86.9785714,10.6097727 86.8309398,10.5054545 C86.6833083,10.4011364 86.4792293,10.2483409 86.2193233,10.0464545 C85.9594173,9.84518182 85.7727068,9.63286364 85.6604323,9.41011364 C85.3651692,8.79831818 85.2175376,8.18652273 85.2175376,7.57411364 C85.2175376,6.43397727 85.603985,5.53990909 86.3775,4.89313636 C87.151015,4.24636364 88.3072556,3.92297727 89.8468421,3.92297727 C91.3864286,3.92297727 92.8732895,4.15984091 94.3074248,4.63234091 L93.8223496,7.13597727 C92.2052256,6.71870455 90.8275376,6.51006818 89.6886654,6.51006818 L89.6886654,6.51006818 Z" id="Shape"></path>
                        <path d="M100.182293,0.584795455 L100.182293,9.80590909 L104.210526,4.19359091 L108.154398,4.19359091 L103.472368,9.80590909 L103.472368,9.91022727 L108.660564,16.4614091 L104.653421,16.4614091 L100.182293,10.0354091 L100.182293,16.4614091 L96.9133083,16.4614091 L96.9976692,9.76418182 L96.9133083,0.584181818 L100.182293,0.584181818 L100.182293,0.584795455 Z" id="Shape"></path>
                        <path d="M114.354925,16.73325 C110.53015,16.73325 108.618383,14.5984091 108.618383,10.3281136 C108.618383,6.05843182 110.516504,3.92297727 114.312744,3.92297727 C116.013609,3.92297727 117.293289,4.37154545 118.151165,5.26868182 C119.008421,6.16581818 119.437669,7.65081818 119.437669,9.72306818 L119.437669,11.45475 L112.01391,11.45475 C112.01391,12.6231136 112.231635,13.3950682 112.667707,13.7706136 C112.96297,14.0350909 113.377331,14.1670227 113.91203,14.1670227 C114.895827,14.1670227 116.147594,13.9448864 117.66609,13.4993864 L118.404248,13.2698864 L119.205677,15.6066136 C118.57297,15.8987045 117.785188,16.1595 116.843571,16.389 C115.901335,16.6185 115.071992,16.73325 114.354925,16.73325 L114.354925,16.73325 Z M115.725789,6.92734091 C115.472707,6.62175 114.966541,6.46834091 114.207293,6.46834091 C113.448045,6.46834091 112.906523,6.64936364 112.583346,7.01079545 C112.260169,7.37222727 112.07718,8.07484091 112.035,9.11802273 L116.105414,9.03456818 C116.07688,7.93554545 115.950338,7.23354545 115.725789,6.92734091 L115.725789,6.92734091 Z" id="Shape"></path>
                        <path d="M125.633853,4.79925 L128.16468,4.79925 L128.16468,7.28202273 L125.591673,7.28202273 L125.591673,12.4353409 C125.591673,13.1029773 125.654944,13.5276136 125.781485,13.7080227 C125.908026,13.8884318 126.146842,13.97925 126.498553,13.97925 L128.1225,13.8749318 L128.1225,16.50375 C127.433346,16.6571591 126.674718,16.73325 125.844756,16.73325 C124.621523,16.73325 123.728289,16.4307273 123.166297,15.8256818 C122.603684,15.2206364 122.322688,14.0627045 122.322688,12.3518864 L122.322688,7.21943182 L120.888553,7.21943182 L120.888553,5.19565909 L122.47032,4.90356818 L122.955395,2.00352273 L125.633853,2.00352273 L125.633853,4.79925 L125.633853,4.79925 Z" id="Shape"></path>
                    </g>
                    <path d="M29.0232519,8.24604545 L29.0232519,25.21125 L8.44415414,25.21125 L8.44415414,8.24604545 L29.0232519,8.24604545 L29.0232519,8.24604545 Z M30.7383835,6.54934091 L6.72902256,6.54934091 L6.72902256,26.9079545 L30.7383835,26.9079545 L30.7383835,6.54934091 L30.7383835,6.54934091 Z M3.2993797,3.15715909 L3.2993797,23.5157727 L5.01451128,23.5157727 L5.01451128,4.85325 L27.3087406,4.85325 L27.3087406,3.15654545 L3.2993797,3.15654545 L3.2993797,3.15715909 Z" id="Shape"></path>
                    <path d="M0.2475,0.0122727273 L0.2475,20.3702727 L1.96263158,20.3702727 L1.96263158,1.70836364 L24.2568609,1.70836364 L24.2568609,0.0122727273 L0.2475,0.0122727273 Z" id="Shape"></path>
                    <g id="Group" transform="translate(9.304511, 14.113636)">
                        <path d="M11.2696241,4.27459091 L7.59868421,4.27459091 C6.83819549,4.27459091 6.22161654,4.93302273 6.22161654,5.74731818 L6.22161654,9.67520455 L7.59868421,9.67520455 L11.2696241,9.67520455 L12.6460714,9.67520455 L12.6460714,5.74731818 C12.6460714,4.93363636 12.0301128,4.27459091 11.2696241,4.27459091 L11.2696241,4.27459091 Z" id="Shape"></path>
                        <ellipse id="Oval" cx="3.78259398" cy="2.80063636" rx="1.48996241" ry="1.47395455"></ellipse>
                        <ellipse id="Oval" cx="9.43353383" cy="1.81820455" rx="1.73746241" ry="1.71879545"></ellipse>
                        <path d="M4.77507519,5.74731818 C4.77507519,5.49081818 4.81601504,5.24352273 4.89045113,5.01034091 L1.54889098,5.01034091 C0.863458647,5.01034091 0.307669173,5.56077273 0.307669173,6.23884091 L0.307669173,9.67581818 L4.77507519,9.67581818 L4.77507519,5.74731818 L4.77507519,5.74731818 Z" id="Shape"></path>
                        <ellipse id="Oval" cx="15.0863346" cy="2.80063636" rx="1.48996241" ry="1.47395455"></ellipse>
                        <path d="M14.0926128,5.74731818 C14.0926128,5.49081818 14.0522932,5.24352273 13.9778571,5.01034091 L17.3194173,5.01034091 C18.0048496,5.01034091 18.5600188,5.56015909 18.5600188,6.23822727 L18.5600188,9.67581818 L14.0926128,9.67581818 L14.0926128,5.74731818 L14.0926128,5.74731818 Z" id="Shape"></path>
                    </g>
                    <path d="M15.0708272,11.8571089 L16.1293587,12.8025409 L14.2115794,12.863509 L13.1530479,11.918077 L15.0708272,11.8571089 L15.0708272,11.8571089 Z" id="Rectangle-path"></path>
                    <path d="M10.4074931,12.7954014 L12.2408171,13.6254027 L11.1784691,13.8024163 L9.3451451,12.972415 L10.4074931,12.7954014 L10.4074931,12.7954014 Z" id="Rectangle-path"></path>
                    <path d="M23.6061016,10.792477 L24.0842146,11.1351758 L23.5450406,13.7372999 L23.0669276,13.3946011 L23.6061016,10.792477 L23.6061016,10.792477 Z" id="Rectangle-path"></path>
                    <path d="M27.1906754,12.7677793 L27.5539841,13.3507244 L26.8993681,15.1278508 L26.5360593,14.5449057 L27.1906754,12.7677793 L27.1906754,12.7677793 Z" id="Rectangle-path"></path>
                    <path d="M19.0780747,10.8056145 L19.8689331,10.9350603 L19.6425349,12.9072435 L18.8516764,12.7777976 L19.0780747,10.8056145 L19.0780747,10.8056145 Z" id="Rectangle-path"></path>
                </g>
            </g>
        </g>
    </g>
</svg>