<?xml version="1.0" encoding="UTF-8" standalone="no"?>
<svg width="34px" height="37px" viewBox="0 0 34 37" version="1.1" xmlns="http://www.w3.org/2000/svg" xmlns:xlink="http://www.w3.org/1999/xlink" xmlns:sketch="http://www.bohemiancoding.com/sketch/ns">
    <!-- Generator: Sketch 3.3 (11970) - http://www.bohemiancoding.com/sketch -->
    <title>Fill 158</title>
    <desc>Created with Sketch.</desc>
    <defs></defs>
    <g id="Page-1" stroke="none" stroke-width="1" fill="none" fill-rule="evenodd" sketch:type="MSPage">
        <g id="Eventseite" sketch:type="MSArtboardGroup" transform="translate(-146.910000, -197.000000)" fill="#3BCDAC">
            <path d="M147.75,224.493 L179.191,224.493 C179.411,224.493 179.6,224.568 179.76,224.717 C179.92,224.868 180,225.043 180,225.243 L180,233.493 L147,233.493 L147,225.243 C147,225.023 147.071,224.843 147.21,224.703 C147.35,224.563 147.53,224.493 147.75,224.493 C147.75,224.493 147.53,224.493 147.75,224.493 L147.75,224.493 L147.75,224.493 Z M159,212.493 L159,221.493 L168,221.493 L168,212.493 L176.85,212.493 L163.5,197.493 L150,212.493 L159,212.493 L159,212.493 L159,212.493 L159,212.493 Z M174,228.993 L177,228.993 L177,227.493 L174,227.493 L174,227.493 L174,228.993 L174,228.993 Z" id="Fill-158" sketch:type="MSShapeGroup"></path>
        </g>
    </g>
</svg>